<?xml version="1.0" encoding="UTF-8"?>
<svg xmlns="http://www.w3.org/2000/svg" xmlns:xlink="http://www.w3.org/1999/xlink" width="981" height="850" viewBox="0 0 981 850" font-family="Inter, system-ui, sans-serif">
  <defs>
        <marker id="arrow-end" markerWidth="8" markerHeight="8" refX="6" refY="4" orient="auto" markerUnits="strokeWidth">
            <path d="M1,1 L6,4 L1,7 z" fill="context-stroke" />
        </marker>
        <marker id="arrow-start" markerWidth="8" markerHeight="8" refX="2" refY="4" orient="auto" markerUnits="strokeWidth">
            <path d="M7,1 L2,4 L7,7 z" fill="context-stroke" />
        </marker>
  </defs>
  <rect width="100%" height="100%" fill="white" />
  <line x1="490.6" y1="130.0" x2="490.6" y2="239.0" stroke="#2d3748" stroke-width="2" marker-end="url(#arrow-end)" />
  <line x1="478.1" y1="290.0" x2="423.5" y2="399.1" stroke="#2d3748" stroke-width="2" marker-end="url(#arrow-end)" />
  <line x1="503.1" y1="290.0" x2="557.7" y2="399.1" stroke="#2d3748" stroke-width="2" marker-end="url(#arrow-end)" />
  <line x1="370.6" y1="450.0" x2="195.3" y2="559.5" stroke="#2d3748" stroke-width="2" marker-end="url(#arrow-end)" />
  <line x1="396.3" y1="450.0" x2="333.6" y2="559.1" stroke="#2d3748" stroke-width="2" marker-end="url(#arrow-end)" />
  <line x1="421.3" y1="450.0" x2="467.8" y2="559.1" stroke="#2d3748" stroke-width="2" marker-end="url(#arrow-end)" />
  <line x1="581.9" y1="450.0" x2="631.4" y2="559.1" stroke="#2d3748" stroke-width="2" marker-end="url(#arrow-end)" />
  <line x1="609.5" y1="450.0" x2="779.7" y2="559.5" stroke="#2d3748" stroke-width="2" marker-end="url(#arrow-end)" />
  <line x1="206.9" y1="610.0" x2="437.2" y2="719.6" stroke="#2d3748" stroke-width="2" marker-end="url(#arrow-end)" />
  <line x1="345.6" y1="610.0" x2="463.0" y2="719.3" stroke="#2d3748" stroke-width="2" marker-end="url(#arrow-end)" />
  <line x1="480.6" y1="610.0" x2="488.7" y2="719.0" stroke="#2d3748" stroke-width="2" marker-end="url(#arrow-end)" />
  <line x1="619.4" y1="610.0" x2="515.1" y2="719.3" stroke="#2d3748" stroke-width="2" marker-end="url(#arrow-end)" />
  <rect x="420.6" y="80.0" width="140.0" height="50.0" rx="8" ry="8" fill="#fde68a" stroke="#2d3748" stroke-width="2" />
  <text x="490.6" y="105.0" fill="#1a202c" font-size="14" text-anchor="middle" dominant-baseline="middle">User task</text>
  <rect x="420.6" y="240.0" width="140.0" height="50.0" rx="8" ry="8" fill="#fde68a" stroke="#2d3748" stroke-width="2" />
  <text x="490.6" y="265.0" fill="#1a202c" font-size="14" text-anchor="middle" dominant-baseline="middle">pi agent</text>
  <rect x="340.6" y="400.0" width="140.0" height="50.0" rx="8" ry="8" fill="#fde68a" stroke="#2d3748" stroke-width="2" />
  <text x="410.6" y="425.0" fill="#1a202c" font-size="14" text-anchor="middle" dominant-baseline="middle">pi/prompts</text>
  <rect x="500.6" y="400.0" width="140.0" height="50.0" rx="8" ry="8" fill="#fde68a" stroke="#2d3748" stroke-width="2" />
  <text x="570.6" y="425.0" fill="#1a202c" font-size="14" text-anchor="middle" dominant-baseline="middle">pi/skills</text>
  <rect x="80.0" y="560.0" width="148.8" height="50.0" rx="8" ry="8" fill="#fde68a" stroke="#2d3748" stroke-width="2" />
  <text x="154.4" y="585.0" fill="#1a202c" font-size="14" text-anchor="middle" dominant-baseline="middle">architect.md</text>
  <rect x="248.8" y="560.0" width="140.0" height="50.0" rx="8" ry="8" fill="#fde68a" stroke="#2d3748" stroke-width="2" />
  <text x="318.8" y="585.0" fill="#1a202c" font-size="14" text-anchor="middle" dominant-baseline="middle">review.md</text>
  <rect x="408.8" y="560.0" width="140.0" height="50.0" rx="8" ry="8" fill="#fde68a" stroke="#2d3748" stroke-width="2" />
  <text x="478.8" y="585.0" fill="#1a202c" font-size="14" text-anchor="middle" dominant-baseline="middle">ship.md</text>
  <rect x="568.8" y="560.0" width="148.8" height="50.0" rx="8" ry="8" fill="#fde68a" stroke="#2d3748" stroke-width="2" />
  <text x="643.2" y="585.0" fill="#1a202c" font-size="14" text-anchor="middle" dominant-baseline="middle">ax-workflows</text>
  <rect x="737.6" y="560.0" width="163.6" height="50.0" rx="8" ry="8" fill="#fde68a" stroke="#2d3748" stroke-width="2" />
  <text x="819.4" y="585.0" fill="#1a202c" font-size="14" text-anchor="middle" dominant-baseline="middle">terminal-first</text>
  <rect x="394.0" y="720.0" width="193.2" height="50.0" rx="8" ry="8" fill="#fde68a" stroke="#2d3748" stroke-width="2" />
  <text x="490.6" y="745.0" fill="#1a202c" font-size="14" text-anchor="middle" dominant-baseline="middle">.chrysalis/outputs</text>
</svg>
